<svg className="web-icon" xmlns="http://www.w3.org/2000/svg" viewBox="0 0 655 650.53">
  <path class="globe-style" d="M1234.54,496.31c0,172.59-139.91,312.5-312.5,312.5s-312.5-139.91-312.5-312.5,132.34-308,304.93-308S1234.54,323.72,1234.54,496.31Z" transform="translate(-594.54 -173.28)"/>
  <path class="globe-style" d="M926.22,808.81s-215.91-36.95-215.91-323c0-225.51,204.16-297.51,204.16-297.51s94.36,116.25,94.36,310.27S926.22,808.81,926.22,808.81Z" transform="translate(-594.54 -173.28)"/>
  <path class="globe-style" d="M926.22,808.81s209.43-20.65,209.43-317.49c0-232.93-221.18-303-221.18-303s-77.68,128.59-77.68,310.28,89.43,310.25,89.43,310.25" transform="translate(-594.54 -173.28)"/>
  <path class="globe-style" d="M609.88,546.29s123.91,29.62,327.26,29.62,297.4-44.19,297.4-44.19" transform="translate(-594.54 -173.28)"/>
  <path class="globe-style" d="M617.29,392.49S735,426.18,934.59,426.18s288.1-45.77,288.1-45.77" transform="translate(-594.54 -173.28)"/>
  <path class="globe-style" d="M705.82,269.26s76.25,30.81,216.39,30.81S1122,262.35,1122,262.35" transform="translate(-594.54 -173.28)"/>
  <path class="globe-style" d="M651.89,653.51s118,63.41,285.28,63.41,266.09-84.18,266.09-84.18" transform="translate(-594.54 -173.28)"/>
</svg>
