<svg xmlns="http://www.w3.org/2000/svg" viewBox="0 0 1000 1000"><defs><style>.a{fill:#7cc466;}.a,.b,.c,.f,.g{stroke:#231f20;stroke-linecap:round;stroke-linejoin:round;}.a,.b,.c{stroke-width:9px;}.b{fill:#a2d395;}.c{fill:#c6e3be;}.d{fill:#fff;}.e{fill:#fdc179;}.f,.g{fill:none;}.f{stroke-width:20px;}.g{stroke-width:15px;}</style></defs><title>logo</title><rect class="a" x="82" y="123.01" width="655.48" height="655.48"/><polygon class="b" points="15.21 189.79 82 123.01 82 778.49 15.21 845.27 15.21 189.79"/><polygon class="c" points="670.69 845.27 737.48 778.49 82 778.49 15.21 845.27 670.69 845.27"/><path class="b" d="M737.77,123.13c0,316.39,251.83,553.35,251.83,553.35H334.12S82.3,439.52,82.3,123.13Z"/><polygon class="d" points="249.78 324.33 670.28 323.87 696.94 394.38 734.07 470.47 762.63 518.89 770.48 556.63 737.48 583.38 623.97 587.08 449.86 583.38 381.48 559.7 334.97 500.78 264.24 377.31 249.78 324.33"/><polygon class="e" points="249.78 324.33 670.28 323.87 649.98 254.71 607.51 217.8 473.28 211.73 303.98 214.49 247.96 248.37 240.46 307.28 249.78 324.33"/><path class="f" d="M745.22,490.69c16.28,28.61,78.83,96.39-72.49,96.39H479c-92.44,0-105.07-34.19-136.41-75.35l-.35-.46C310.56,465.68,268.57,403.73,245,324.33l-.13-.46s-42.79-112.14,92.61-112.14h187.1c79.77,0,123.78,14.62,135.65,70.49C673.36,359.62,728.94,462.07,745.22,490.69Z"/><line class="f" x1="670.28" y1="323.87" x2="244.86" y2="323.87"/><line class="g" x1="310.11" y1="447.63" x2="721.74" y2="447.63"/><path class="g" d="M363.91,324.33c0,78,78.45,193.64,135.33,262.75"/><path class="g" d="M566,327.33c19.69,108.27,134.13,257.9,134.13,257.9"/><path class="g" d="M467.4,324.33c0,78,72.92,189.79,129.6,259.05"/></svg>