<svg class="trash-can" xmlns="http://www.w3.org/2000/svg" xmlns:xlink="http://www.w3.org/1999/xlink" x="0px" y="0px" viewBox="0 0 512 512" style="enable-background:new 0 0 512 512;" xml:space="preserve">
	<g>
		<path class="trash-can-path" d="M92.205,150l26.568,320.735C120.678,493.865,140.38,512,163.598,512h184.805c23.218,0,42.92-18.135,44.824-41.265
			L419.795,150H92.205z M211,437c0,8.291-6.709,15-15,15s-15-6.709-15-15V195c0-8.291,6.709-15,15-15s15,6.709,15,15V437z M271,437
			c0,8.291-6.709,15-15,15c-8.291,0-15-6.709-15-15V195c0-8.291,6.709-15,15-15s15,6.709,15,15V437z M331,437
			c0,8.291-6.709,15-15,15c-8.291,0-15-6.709-15-15V195c0-8.291,6.709-15,15-15c8.291,0,15,6.709,15,15V437z" />
	</g>
	<g>
		<path class="trash-can-path" d="M406,60h-75V45c0-24.814-20.186-45-45-45h-60c-24.814,0-45,20.186-45,45v15h-75c-24.853,0-45,20.147-45,45
			c0,8.284,6.716,15,15,15h360c8.284,0,15-6.716,15-15C451,80.147,430.853,60,406,60z M301,60h-90V45c0-8.276,6.724-15,15-15h60
			c8.276,0,15,6.724,15,15V60z" />
	</g>
</svg>
